<?xml version="1.0" encoding="utf-8"?>
<!-- Generator: Adobe Illustrator 23.0.4, SVG Export Plug-In . SVG Version: 6.00 Build 0)  -->
<svg version="1.1" id="Layer_1" xmlns="http://www.w3.org/2000/svg" xmlns:xlink="http://www.w3.org/1999/xlink" x="0px" y="0px"
	 viewBox="0 0 69.2516785 69.2516785" style="enable-background:new 0 0 69.2516785 69.2516785;" xml:space="preserve">
<style type="text/css">
	.st0{fill:#010101;}
</style>
<g>
	<path class="st0" d="M34.7513275,47.3459816c-6.2773418,0-11.3837872-5.1074219-11.3837872-11.3847656
		c0-6.2768574,5.1064453-11.383791,11.3837872-11.383791s11.3837891,5.1069336,11.3837891,11.383791
		C46.1351166,42.2385597,41.0286713,47.3459816,34.7513275,47.3459816z M34.7513275,26.577425
		c-5.1738262,0-9.3837872,4.2094727-9.3837872,9.383791c0,5.1748047,4.2099609,9.3847656,9.3837872,9.3847656
		s9.3837891-4.2099609,9.3837891-9.3847656C44.1351166,30.7868977,39.9251556,26.577425,34.7513275,26.577425z"/>
	<path class="st0" d="M33.868515,61.0510597c-5.2080059,0-10.248045-0.0390625-11.8290997-0.1289062
		c-2.0371094-0.0253906-4.0810547-0.40625-6.03125-1.1298828c-2.9833994-1.1376953-5.3466806-3.4921875-6.493165-6.4638672
		c-0.7285156-1.9628906-1.1083984-4.0068359-1.1357422-6.0878906C8.2259378,43.8323097,8.1937113,25.339632,8.3812113,22.0300617
		c0.0175781-2.0561523,0.3984375-4.1225586,1.1289062-6.0942383c1.1503906-2.984375,3.5146484-5.3393555,6.4892578-6.4746094
		c1.9599619-0.7265625,4.0039072-1.1069336,6.0839853-1.1337891c3.4101562-0.1523438,21.9013653-0.1855469,25.2109356,0.0014648
		c2.0371094,0.0253906,4.0810547,0.4057617,6.03125,1.1293945c2.9755859,1.1464844,5.3310547,3.5014648,6.4726562,6.4648438
		c0.7265625,1.9580078,1.1064453,3.996582,1.1357422,6.0712891c0.1445312,3.3076172,0.0058594,24.2841816,0,25.1767597
		c-0.0195312,2.1064453-0.4003906,4.1728516-1.1308594,6.1445312c-1.1464844,2.9765625-3.5019531,5.3310547-6.4658203,6.4726562
		c-1.9609375,0.7275391-4.0048828,1.1083984-6.0869141,1.1357422C45.4700775,61.0041847,39.5687103,61.0510597,33.868515,61.0510597
		z M35.4739838,10.2034016c-5.6992168,0-11.6044903,0.0454102-13.3330059,0.1230469
		c-1.8828125,0.0249023-3.7011719,0.3632812-5.4375,1.0068359c-2.437501,0.9296875-4.3808603,2.8662109-5.3232431,5.3095703
		c-0.6445312,1.7421875-0.9833984,3.5810547-1.0009766,5.453125c-0.1806641,3.2089844-0.1494141,21.7822285-0.0009766,25.086916
		c0.0244141,1.8837891,0.3632812,3.7021484,1.0068359,5.4375c0.9384766,2.4316406,2.8818359,4.3671875,5.3271494,5.2998047
		c1.7265625,0.6416016,3.5449219,0.9804688,5.3964844,1.0039062c3.2060547,0.1806641,21.779295,0.1484375,25.0839825,0.0009766
		c1.8847656-0.0244141,3.703125-0.3632812,5.4365234-1.0078125c2.4267578-0.9345703,4.3632812-2.8710938,5.3037109-5.3085938
		c0.6445312-1.7431641,0.9833984-3.5820312,1.0009766-5.4541016c0.0019531-0.2158203,0.1445312-21.8808613,0.0009766-25.0859394
		l-0.0009766-0.0317383c-0.0234375-1.8515625-0.3623047-3.6704102-1.0058594-5.40625
		c-0.9355469-2.425293-2.8720703-4.3623047-5.3095703-5.3017578c-1.7236328-0.6391602-3.5419922-0.9775391-5.3935547-1.0014648
		C45.6956635,10.2414875,40.6702728,10.2034016,35.4739838,10.2034016z M49.8782806,24.9665852
		c-2.9912109,0-5.4248047-2.4331055-5.4248047-5.4243164s2.4335938-5.4248047,5.4248047-5.4248047
		c2.9902344,0,5.4238281,2.4335938,5.4238281,5.4248047S52.868515,24.9665852,49.8782806,24.9665852z M49.8782806,16.1174641
		c-1.8886719,0-3.4248047,1.5361328-3.4248047,3.4248047c0,1.8881836,1.5361328,3.4243164,3.4248047,3.4243164
		c1.8876953,0,3.4238281-1.5361328,3.4238281-3.4243164C53.3021088,17.6535969,51.765976,16.1174641,49.8782806,16.1174641z"/>
</g>
</svg>
