<?xml version="1.0" encoding="utf-8"?>
<!-- Generator: Adobe Illustrator 23.0.4, SVG Export Plug-In . SVG Version: 6.00 Build 0)  -->
<svg version="1.1" id="Layer_1" xmlns="http://www.w3.org/2000/svg" xmlns:xlink="http://www.w3.org/1999/xlink" x="0px" y="0px"
	 viewBox="0 0 69.2516785 69.2516785" style="enable-background:new 0 0 69.2516785 69.2516785;" xml:space="preserve">
<style type="text/css">
	.st0{fill:#FFFFFF;}
</style>
<g>
	<g>
		<g>
			<path class="st0" d="M12.5414515,53.9219894c-18.6773167-24.3177567,2.05725-31.6180458,5.801156-16.9944611
				C17.5514221,33.0645905,7.1272116-4.0624304,19.6813412,2.0670917c2.1685677,1.2705624,3.5189915,3.627578,4.5065613,5.821806
				c1.2726803,2.8276987,2.0776653,6.4737682,3.0189152,9.4149771c1.0438042,3.2616711,2.760788,11.024004,2.9365711,12.3399925
				c0.3340168,2.500618,0.3618526,4.3353081-0.9906521,4.4169159c-1.0695992,0.064537-1.4448929-2.3240089-1.5283985-3.4655933
				c-0.1198387-1.6383209,0.0118465-3.0616207,0.3594074-4.6656075c0.3035774-1.4010105,0.6557331-2.5972042,1.3641872-3.8543758
				c1.3864422-2.4602833,3.7902966-4.0865822,6.7106838-3.0998802c2.3269958,0.7862167,3.6254272,2.7051392,4.4504013,4.7674675
				c0.5102615,1.275589,0.7243462,2.4450455,1.1579781,4.1886959c0.0994301,0.3998146,0.6548233,3.8878269-0.514946,4.4168491
				c-0.9015236,0.4077072-1.0159683-1.2672901-1.0349312-2.3031883c-0.0244217-1.3341122,0.2649879-2.70047,0.6814499-3.9745102
				c0.789299-2.4145851,4.1204834-5.982008,6.9731255-5.7063465c2.3717346,0.2291889,3.9513397,2.477087,4.9328003,4.3997879
				c0.3769684,0.7384872,1.8500099,3.9556465,2.065258,6.0515709c0.0228958,0.222929,0.1335602,1.5622997-0.2935791,1.5464802
				c-0.5321159-0.0197067-0.9231453-0.5106411-0.9790077-1.4379673c-0.0950966-1.5786724,0.9217148-3.4638309,2.0948029-4.5002518
				c1.1164093-0.9863434,2.5505714-0.9873886,3.9233246-0.7302628c5.0210609,1.3556671,6.0297279,9.8344517,3.6807327,18.9468288
				c-2.6794434,10.3942833-7.6295242,19.9898376-8.2614822,23.2256775
				C37.6324959,59.9684792,25.6570797,74.1416092,12.5414515,53.9219894z"/>
			<path d="M55.4882812,68.9433594l-0.8652344-0.3945312c-6.640625-3.0322266-12.4130859-2.734375-17.9912109-2.4443359
				c-8.4951172,0.4355469-16.5185547,0.8525391-24.703125-11.7490234
				C1.7861328,41.1376953,3.8896484,34.2109375,5.2661133,31.8461914c1.3251953-2.2773438,3.7451172-3.4731445,6.3027344-3.1142578
				c1.4960938,0.2080078,3.1933594,0.9926758,4.6474609,2.534668c-2.9951172-12.7661133-5.3642578-26.5336914-1.2202148-29.875
				c1.253418-1.0107422,2.9404297-1.0112305,5.0141602,0.0014648c2.503418,1.4643555,3.9101562,4.0742188,4.8618164,6.1875
				c0.8818359,1.9609375,1.5327148,4.2607422,2.1621094,6.484375c0.2954102,1.0424805,0.5839844,2.0634766,0.887207,3.0102539
				c0.3266602,1.0214844,0.7211914,2.4907227,1.1147461,4.0703125c1.7773438-2.7094727,4.5102539-3.8110352,7.2626953-2.8808594
				c2.1982422,0.7431641,3.8037109,2.4438477,4.90625,5.1992188c0.0205078,0.050293,0.0400391,0.0996094,0.0585938,0.1494141
				c1.5576172-2.1816406,4.1630859-4.230957,6.5800781-3.9956055c2.1464844,0.2075195,4.0068359,1.8242188,5.5283203,4.8056641
				c0.0097656,0.0180664,0.4804688,0.9628906,0.9814453,2.2207031c0.2382812-0.2949219,0.4892578-0.559082,0.7412109-0.7822266
				c1.4736328-1.3007812,3.3085938-1.1381836,4.5585938-0.9052734c5.1933594,1.3999023,6.9257812,9.565918,4.2695312,19.871582
				c-1.6230469,6.2949219-4.0908203,12.3447266-5.8925781,16.7617188c-1.1855469,2.9052734-2.1210938,5.2001953-2.359375,6.4199219
				L55.4882812,68.9433594z M41.5869141,64.4355469c3.9501953,0,8.2285156,0.4462891,12.8388672,2.3886719
				c0.4082031-1.3720703,1.1982422-3.3076172,2.2158203-5.8007812c1.7851562-4.3779297,4.2304688-10.3730469,5.828125-16.5703125
				c2.3994141-9.3095703,1.0751953-16.8945312-3.1494141-18.0351562c-1.4658203-0.2719727-2.4755859-0.1000977-3.2314453,0.5678711
				c-0.3945312,0.3481445-0.7900391,0.8330078-1.1142578,1.3803711c0.2587891,0.8129883,0.4658203,1.6430664,0.5410156,2.3725586
				c0.1064453,1.015625-0.0087891,1.7128906-0.34375,2.0712891c-0.1904297,0.2045898-0.4482422,0.3115234-0.7226562,0.3017578
				c-0.7617188-0.0288086-1.6083984-0.6064453-1.7011719-2.1425781c-0.0537109-0.9023438,0.1933594-1.8549805,0.6015625-2.7241211
				c-0.4931641-1.4101562-1.1044922-2.7294922-1.3134766-3.1401367c-1.2734375-2.4956055-2.7324219-3.8393555-4.3369141-3.9941406
				c-2.1103516-0.1987305-4.765625,2.2817383-5.8486328,4.3935547c0.0898438,0.3510742,0.1767578,0.7177734,0.2705078,1.1113281
				c0.0830078,0.3525391,0.1728516,0.7280273,0.2734375,1.1347656c0.0107422,0.043457,0.9697266,4.4208984-0.9335938,5.28125
				c-0.4169922,0.1889648-0.8427734,0.1704102-1.1953125-0.0527344c-0.6074219-0.3842773-0.8681641-1.2304688-0.8984375-2.9204102
				c-0.0234375-1.2729492,0.21875-2.6928711,0.71875-4.2211914c0.0498047-0.1533203,0.109375-0.3100586,0.1757812-0.4692383
				c-0.1289062-0.4614258-0.2705078-0.8999023-0.4492188-1.3466797c-0.9296875-2.3232422-2.2363281-3.7416992-3.9941406-4.3359375
				c-3.2304688-1.0932617-5.1450195,1.5649414-5.8168945,2.7578125c-0.1655273,0.2939453-0.3105469,0.5849609-0.4389648,0.8759766
				c0.6625977,2.8144531,1.2270508,5.4946289,1.3242188,6.2255859c0.2949219,2.2070312,0.3334961,3.75-0.3842773,4.621582
				c-0.3198242,0.3881836-0.7709961,0.6103516-1.3046875,0.6425781c-1.7890625,0.1113281-2.2270508-2.8720703-2.3212891-4.1591797
				c-0.1191406-1.628418-0.0039062-3.1333008,0.3745117-4.8789062c0.1777344-0.8208008,0.3930664-1.6845703,0.7421875-2.5800781
				c-0.5102539-2.1401367-1.065918-4.3007812-1.5004883-5.6586914c-0.3081055-0.9619141-0.6015625-1.9990234-0.9013672-3.0585938
				c-0.6147461-2.171875-1.2504883-4.4174805-2.0874023-6.2773438c-0.8598633-1.909668-2.1147461-4.2592773-4.2021484-5.4824219
				C17.8271484,1.9960938,16.7099609,1.9370117,15.9375,2.559082c-2.9018555,2.3398438-2.0292969,13.0800781,2.59375,31.921875
				c0.2661133,1.0839844,0.4609375,1.8803711,0.5463867,2.2963867l-1.4614258,0.3359375
				c-1.1796875-4.6069336-4.0039062-6.5830078-6.2539062-6.8959961C9.3837891,29.9423828,7.5908203,30.8330078,6.5625,32.6005859
				c-0.9555664,1.6420898-3.3061523,8.0009766,6.5737305,20.8642578l0.034668,0.0488281
				c7.7207031,11.9033203,14.9804688,11.5234375,23.3837891,11.0927734
				C38.1689453,64.5224609,39.8466797,64.4355469,41.5869141,64.4355469z M28.6889648,26.21875
				c-0.3286133,1.5625-0.4233398,2.8623047-0.3164062,4.3217773c0.1166992,1.5957031,0.5288086,2.6552734,0.7695312,2.777832
				c0.1166992-0.015625,0.1655273-0.0605469,0.2026367-0.1054688c0.4462891-0.5419922,0.1523438-2.7456055,0.0556641-3.4697266
				C29.3354492,29.2602539,29.0610352,27.9018555,28.6889648,26.21875z M40.9951172,28.3774414
				c-0.0947266,0.5820312-0.1376953,1.1342773-0.1279297,1.6538086c0.0126953,0.7138672,0.0712891,1.1396484,0.1279297,1.3886719
				C41.2109375,30.7988281,41.1552734,29.2646484,40.9951172,28.3774414z"/>
		</g>
	</g>
	<g>
		<g>
			<rect x="48.8300781" y="40.4130859" width="1.5" height="14.8164062"/>
		</g>
	</g>
	<g>
		<g>
			<line class="st0" x1="40.6547852" y1="55.2292633" x2="40.2085419" y2="40.4135704"/>
			
				<rect x="39.6817932" y="40.4097252" transform="matrix(0.9995466 -0.0301076 0.0301076 0.9995466 -1.4214559 1.2389944)" width="1.5006725" height="14.8231258"/>
		</g>
	</g>
	<g>
		<g>
			<rect x="30.9799805" y="40.4130859" width="1.5" height="14.8164062"/>
		</g>
	</g>
</g>
</svg>
