<?xml version="1.0" encoding="utf-8"?>
<!-- Generator: Adobe Illustrator 23.0.4, SVG Export Plug-In . SVG Version: 6.00 Build 0)  -->
<svg version="1.1" id="Layer_1" xmlns="http://www.w3.org/2000/svg" xmlns:xlink="http://www.w3.org/1999/xlink" x="0px" y="0px"
	 viewBox="0 0 69.2516785 69.2516785" style="enable-background:new 0 0 69.2516785 69.2516785;" xml:space="preserve">
<path d="M36.328476,60.2991791c-8.84375,0-18.3613281-5.4648438-18.3613281-17.4638672
	c0-10.2578125,5.7666016-19.7705078,15.4501953-25.2431641C21.38414,13.0482025,7.1165619,12.953476,6.1048431,12.953476v-2
	c8.3183594,0,20.3193359,1.4130859,29.6962891,5.3916016c7.1357422-3.4511719,17.0830078-5.3925781,27.2255859-5.3925781h0.1201172
	v2h-0.1201172c-9.7041016,0-18.6328125,1.6875-24.8847656,4.4570312
	c9.6210938,4.6884766,17.0029297,13.3720703,17.0029297,25.4257812
	C55.1448822,54.3011322,45.6790619,60.2991791,36.328476,60.2991791z M35.7757416,18.5491791
	c-10.7431641,5.6191406-15.8085938,15.6572266-15.8085938,24.2861328c0,10.625,8.4814453,15.4638672,16.3613281,15.4638672
	c4.34375,0,8.5712891-1.4296875,11.5986328-3.9238281c3.4130859-2.8125,5.2177734-6.8027344,5.2177734-11.5400391
	C53.1448822,30.6673431,45.125351,22.625351,35.7757416,18.5491791z"/>
</svg>
